General
Count                            : 278
Count of stream of this kind     : 1
Kind of stream                   : General
Kind of stream                   : General
Stream identifier                : 0
Count of video streams           : 1
Count of audio streams           : 1
Video_Format_List                : AVC
Video_Format_WithHint_List       : AVC
Codecs Video                     : AVC
Audio_Format_List                : DTS
Audio_Format_WithHint_List       : DTS
Audio codecs                     : DTS
Complete name                    : _AVI_DTS_ES_6.1.AVI
File name                        : _AVI_DTS_ES_6.1.AVI
File extension                   : avi
Format                           : AVI
Format                           : AVI
Format/Info                      : Audio Video Interleave
Format/Extensions usually used   : avi
Commercial name                  : AVI
Internet media type              : video/vnd.avi
Interleaved                      : Yes
Codec                            : AVI
Codec                            : AVI
Codec/Info                       : Audio Video Interleave
Codec/Extensions usually used    : avi
File size                        : 5849918
File size                        : 5.58 MiB
File size                        : 6 MiB
File size                        : 5.6 MiB
File size                        : 5.58 MiB
File size                        : 5.579 MiB
Duration                         : 18306
Duration                         : 18s 306ms
Duration                         : 18s 306ms
Duration                         : 18s 306ms
Duration                         : 00:00:18.306
Overall bit rate                 : 2556503
Overall bit rate                 : 2 557 Kbps
Stream size                      : 18292
Stream size                      : 17.9 KiB (0%)
Stream size                      : 18 KiB
Stream size                      : 18 KiB
Stream size                      : 17.9 KiB
Stream size                      : 17.86 KiB
Stream size                      : 17.9 KiB (0%)
Proportion of this stream        : 0.00313
Director                         : created.with.SUPER(C).v2010.bld.38
File creation date               : UTC 2011-11-28 08:45:32.645
File creation date (local)       : 2011-11-28 08:45:32.645
File last modification date      : UTC 2010-07-20 12:34:25.298
File last modification date (loc : 2010-07-20 12:34:25.298
Writing application              : SUPER(C) - by eRightSoft

Video
Count                            : 200
Count of stream of this kind     : 1
Kind of stream                   : Video
Kind of stream                   : Video
Stream identifier                : 0
ID                               : 0
ID                               : 0
Format                           : AVC
Format/Info                      : Advanced Video Codec
Format/Url                       : http://developers.videolan.org/x264.html
Commercial name                  : AVC
Format profile                   : Baseline@L1.3
Format settings                  : 1 Ref Frames
Format settings, CABAC           : No
Format settings, CABAC           : No
Format settings, ReFrames        : 1
Format settings, ReFrames        : 1 frame
Internet media type              : video/H264
Codec ID                         : H264
Codec                            : H264
Codec                            : AVC
Codec/Family                     : AVC
Codec/Info                       : Intel H.264
Codec/CC                         : H264
Codec profile                    : Baseline@L1.3
Codec settings                   : 1 Ref Frames
Codec settings, CABAC            : No
Codec_Settings_RefFrames         : 1
Duration                         : 18085
Duration                         : 18s 85ms
Duration                         : 18s 85ms
Duration                         : 18s 85ms
Duration                         : 00:00:18.085
Bit rate                         : 1024920
Bit rate                         : 1 025 Kbps
Width                            : 720
Width                            : 720 pixels
Height                           : 480
Height                           : 480 pixels
Pixel aspect ratio               : 1.186
Display aspect ratio             : 1.779
Display aspect ratio             : 16:9
Frame rate                       : 29.970
Frame rate                       : 29.970 fps
Frame count                      : 542
Standard                         : NTSC
Resolution                       : 8
Resolution                       : 8 bits
Colorimetry                      : 4:2:0
Color space                      : YUV
Chroma subsampling               : 4:2:0
Bit depth                        : 8
Bit depth                        : 8 bits
Scan type                        : Progressive
Scan type                        : Progressive
Interlacement                    : PPF
Interlacement                    : Progressive
Bits/(Pixel*Frame)               : 0.099
Delay                            : 0
Delay                            : 00:00:00.000
Stream size                      : 2316928
Stream size                      : 2.21 MiB (40%)
Stream size                      : 2 MiB
Stream size                      : 2.2 MiB
Stream size                      : 2.21 MiB
Stream size                      : 2.210 MiB
Stream size                      : 2.21 MiB (40%)
Proportion of this stream        : 0.39606
Writing library                  : SUPER(C) by eRightSoft 2000-2008
Writing library                  : SUPER(C) by eRightSoft
Writing library/Name             : SUPER(C) by eRightSoft

Audio
Count                            : 169
Count of stream of this kind     : 1
Kind of stream                   : Audio
Kind of stream                   : Audio
Stream identifier                : 0
ID                               : 1
ID                               : 1
Format                           : DTS
Format/Info                      : Digital Theater Systems
Commercial name                  : DTS
Format profile                   : ES
Codec ID                         : 2001
Codec ID/Info                    : Digital Theater Systems
Codec                            : DTS
Codec                            : DTS
Codec/Family                     : DTS
Codec/Info                       : Digital Theater Systems
Codec/CC                         : 2001
Duration                         : 18306
Duration                         : 18s 306ms
Duration                         : 18s 306ms
Duration                         : 18s 306ms
Duration                         : 00:00:18.306
Bit rate mode                    : CBR
Bit rate mode                    : Constant
Bit rate                         : 1509750
Bit rate                         : 1 510 Kbps
Channel(s)                       : 7 / 6
Channel(s)                       : 7 channels / 6 channels
Channel positions                : Front: L C R, Side: L R, Back: C, LFE / Front: L C R, Side: L R, LFE
Channel positions                : 3/2/1.1 / 3/2/0.1
Sampling rate                    : 48000
Sampling rate                    : 48.0 KHz
Samples count                    : 878688
Resolution                       : 24
Resolution                       : 24 bits
Bit depth                        : 24
Bit depth                        : 24 bits
Compression mode                 : Lossy
Compression mode                 : Lossy
Delay                            : 0
Delay                            : 00:00:00.000
Delay, origin                    : Container
Delay, origin                    : Container
Delay relative to video          : 0
Video0 delay                     : 0
Stream size                      : 3514698
Stream size                      : 3.35 MiB (60%)
Stream size                      : 3 MiB
Stream size                      : 3.4 MiB
Stream size                      : 3.35 MiB
Stream size                      : 3.352 MiB
Stream size                      : 3.35 MiB (60%)
Proportion of this stream        : 0.60081
Alignment                        : Split
Alignment                        : Split accross interleaves
Interleave, duration             : 14.65
Interleave, duration             : 489
Interleave, duration             : 489 ms (14.65 video frames)
Interleave, preload duration     : 500
Interleave, preload duration     : 500 ms

